<?xml version="1.0" standalone="no"?>
<!DOCTYPE svg PUBLIC "-//W3C//DTD SVG 20010904//EN"
 "http://www.w3.org/TR/2001/REC-SVG-20010904/DTD/svg10.dtd">
<svg version="1.0" xmlns="http://www.w3.org/2000/svg"
 width="700.000000pt" height="700.000000pt" viewBox="0 0 700.000000 700.000000"
 preserveAspectRatio="xMidYMid meet">
<metadata>
Created by potrace 1.14, written by Peter Selinger 2001-2017
</metadata>
<g transform="translate(0.000000,700.000000) scale(0.100000,-0.100000)"
fill="#000000" stroke="none">
<path d="M3265 6648 c-44 -4 -102 -12 -130 -18 -27 -6 -64 -13 -82 -16 -17 -3
-62 -14 -100 -25 -37 -11 -75 -22 -83 -24 -99 -26 -254 -99 -360 -170 -394
-264 -621 -581 -705 -985 -2 -9 -6 -43 -10 -75 -4 -33 -9 -69 -11 -80 -7 -32
-6 -285 1 -340 27 -226 30 -234 113 -415 156 -341 428 -617 764 -778 148 -71
427 -148 557 -155 28 -1 51 -6 51 -11 0 -5 6 -4 13 0 18 14 92 10 91 -4 -3
-38 -5 -43 -12 -38 -4 2 -8 -3 -9 -12 0 -9 -17 -96 -38 -192 -20 -96 -39 -186
-42 -200 -2 -14 -17 -86 -33 -161 -16 -74 -32 -151 -35 -170 -3 -19 -8 -41
-10 -49 -2 -8 -7 -26 -9 -40 -14 -66 -27 -127 -30 -145 -8 -43 -67 -322 -76
-360 -12 -51 -50 -232 -56 -265 -2 -14 -7 -36 -10 -50 -3 -14 -8 -36 -11 -50
-2 -14 -13 -65 -24 -115 -12 -49 -22 -99 -25 -110 -2 -11 -15 -76 -30 -145
-14 -69 -27 -133 -29 -143 -2 -10 -6 -26 -9 -35 -3 -9 -8 -30 -11 -47 -33
-180 -32 -216 10 -255 21 -20 36 -24 94 -24 l69 -1 -1 -30 c0 -61 1 -64 46
-70 64 -9 256 -12 269 -4 7 4 17 5 23 1 18 -12 199 -10 214 2 11 8 13 8 8 0
-7 -13 460 -14 480 -1 6 4 14 3 18 -3 4 -6 10 -8 15 -5 5 3 58 6 117 6 170 -1
273 23 363 83 128 85 189 195 240 436 32 152 38 179 45 218 3 15 12 56 20 92
32 147 56 257 61 285 2 17 7 37 9 45 2 8 7 31 10 50 3 19 11 55 16 80 6 25 28
133 51 240 22 107 42 204 45 215 2 11 7 36 9 55 3 19 9 49 14 65 5 17 12 44
15 60 12 69 16 92 25 125 5 19 12 49 14 65 7 38 7 37 50 240 19 94 38 181 40
195 2 14 13 66 25 115 11 50 23 106 26 125 3 19 8 42 10 50 2 8 7 31 10 50 3
19 11 55 16 80 6 25 13 56 15 70 3 14 14 67 25 119 22 98 26 120 34 161 3 14
9 40 14 58 5 18 10 36 10 40 2 15 11 68 18 97 4 17 7 68 7 115 0 81 -2 88 -37
143 -20 32 -44 60 -51 63 -8 3 -17 23 -21 44 -12 74 -95 153 -199 192 -41 15
-84 20 -221 23 -93 2 -174 4 -180 5 -5 1 -12 1 -15 0 -17 -6 -40 -7 -40 -1 0
4 -9 7 -20 7 -11 0 -20 -3 -20 -6 0 -3 -9 -6 -20 -6 -11 0 -20 3 -20 7 0 9
-21 6 -39 -5 -8 -5 -16 -4 -21 4 -10 17 -15 17 -35 0 -11 -9 -16 -10 -11 -2 9
16 -6 16 -23 0 -11 -10 -13 -10 -7 0 5 9 -4 12 -34 12 -30 0 -39 -3 -34 -12 6
-10 4 -10 -7 0 -7 6 -24 12 -37 12 -16 0 -21 -4 -16 -12 6 -10 5 -10 -7 -2 -8
7 -35 13 -61 15 -38 3 -48 1 -48 -11 0 -13 -2 -13 -9 -1 -10 16 -141 25 -141
9 0 -5 4 -7 9 -3 5 3 12 1 15 -4 4 -5 -2 -8 -11 -7 -9 2 -19 8 -21 14 -2 7
-10 12 -18 12 -9 0 -13 -4 -9 -9 3 -5 1 -13 -5 -16 -6 -4 -9 -1 -8 7 2 10 -12
13 -54 12 -32 -1 -58 3 -58 8 0 5 -4 7 -10 3 -5 -3 -7 -13 -3 -23 4 -11 0 -10
-11 5 -15 21 -53 22 -40 2 3 -5 9 -7 14 -4 5 3 11 1 14 -4 7 -11 -13 -9 -34 4
-16 10 -66 9 -83 -2 -6 -4 -21 -8 -34 -9 -44 -5 -81 -41 -97 -97 -38 -134 -99
-396 -117 -502 -17 -105 -15 -104 -109 -100 -480 19 -766 246 -895 709 -29
105 -16 292 31 441 61 194 235 392 429 488 49 24 180 65 240 74 17 3 49 8 72
12 70 13 264 10 352 -5 107 -19 247 -64 339 -109 40 -19 76 -35 80 -35 9 0 36
51 183 341 60 119 109 220 109 225 0 14 -86 77 -146 107 -92 46 -336 125 -439
141 -16 2 -50 8 -75 11 -25 4 -54 9 -65 11 -42 9 -304 10 -380 2z m745 -1713
c0 -2 -9 -3 -19 -2 -11 0 -18 5 -15 9 4 6 34 0 34 -7z m1027 -98 c12 -3 50
-14 85 -23 62 -17 97 -42 76 -55 -5 -3 -84 -3 -176 0 -243 8 -857 7 -997 -1
-66 -4 -126 -8 -132 -8 -7 0 -26 -18 -42 -40 -24 -34 -35 -70 -67 -235 -20
-107 -41 -200 -45 -206 -4 -6 -30 -14 -59 -17 l-52 -5 6 54 c3 30 10 70 16 89
6 19 13 49 16 65 3 17 11 55 19 85 7 30 16 69 18 85 22 132 43 195 72 218 12
9 1229 4 1262 -6z m348 -177 c3 -5 1 -10 -4 -10 -6 0 -11 5 -11 10 0 6 2 10 4
10 3 0 8 -4 11 -10z m-709 -534 c-14 -55 -309 -1446 -386 -1816 -138 -666
-161 -778 -172 -818 l-12 -42 -54 0 c-29 0 -73 5 -98 11 -40 10 -44 14 -42 38
3 23 8 27 52 31 l48 5 28 136 c16 75 38 171 50 213 11 42 19 80 16 84 -3 5 4
37 14 71 11 35 20 76 20 93 0 16 6 50 14 76 7 26 21 88 30 137 16 82 149 713
161 760 52 207 155 688 155 724 0 27 6 62 14 78 8 15 22 74 32 130 19 112 16
109 98 112 35 1 38 -1 32 -23z m-1090 -583 c-5 -18 -81 -375 -135 -633 -17
-80 -55 -260 -85 -400 -30 -140 -66 -309 -80 -375 -14 -66 -30 -138 -36 -160
-5 -22 -42 -188 -81 -370 -40 -181 -84 -384 -98 -450 -26 -120 -26 -120 -57
-123 -20 -2 -36 4 -48 17 -17 19 -18 26 -7 78 14 65 18 86 26 123 3 14 7 34 9
45 2 11 12 56 21 100 9 44 18 89 21 100 3 16 44 209 70 330 2 11 6 32 9 48 3
15 32 152 65 305 32 152 61 288 64 302 2 14 7 36 10 50 3 14 8 36 10 50 2 14
11 59 20 100 9 41 26 120 37 175 11 55 23 109 25 120 3 11 8 34 10 50 3 17 12
62 21 100 8 39 16 79 19 90 2 11 9 45 16 75 6 30 12 60 13 65 0 6 4 24 8 40 3
17 9 44 12 60 3 17 9 44 13 60 9 31 4 30 120 43 8 1 11 -5 8 -15z"/>
</g>
</svg>
