<?xml version="1.0" encoding="UTF-8"?>
<!DOCTYPE svg PUBLIC "-//W3C//DTD SVG 1.1//EN" "http://www.w3.org/Graphics/SVG/1.1/DTD/svg11.dtd">
<svg xmlns="http://www.w3.org/2000/svg" version="1.1" width="500px" height="500px" style="shape-rendering:geometricPrecision; text-rendering:geometricPrecision; image-rendering:optimizeQuality; fill-rule:evenodd; clip-rule:evenodd" xmlns:xlink="http://www.w3.org/1999/xlink">
<g><path style="opacity:1" fill="#080808" d="M 251.5,197.5 C 248.289,214.03 244.622,230.364 240.5,246.5C 196.746,244.551 163.246,225.218 140,188.5C 117.759,144.335 122.093,103.001 153,64.5C 193.799,24.2732 241.299,14.1065 295.5,34C 301.157,36.4934 306.49,39.4934 311.5,43C 312.517,44.0495 312.684,45.2161 312,46.5C 305.51,60.149 298.51,73.4823 291,86.5C 283.09,80.7447 274.256,76.9114 264.5,75C 238.514,70.0357 215.68,76.2023 196,93.5C 171.7,126.459 174.534,156.959 204.5,185C 218.725,194.283 234.391,198.45 251.5,197.5 Z"/></g>
<g><path style="opacity:0.84" fill="#89fda9" d="M 384.5,165.5 C 383.527,167.948 383.194,170.615 383.5,173.5C 381.579,187.433 378.913,201.1 375.5,214.5C 377.703,201.66 379.703,188.827 381.5,176C 380.333,174.216 379.333,174.216 378.5,176C 377.971,179.757 376.971,183.257 375.5,186.5C 377.054,179.572 377.554,172.572 377,165.5C 376.392,163.934 375.558,162.6 374.5,161.5C 374.043,159.227 372.71,157.894 370.5,157.5C 362.081,154.972 353.414,153.805 344.5,154C 319.833,153.333 295.167,153.333 270.5,154C 268.667,154.5 267.5,155.667 267,157.5C 264.228,170.859 261.395,184.192 258.5,197.5C 254.801,212.654 251.467,227.988 248.5,243.5C 247.596,244.209 247.263,245.209 247.5,246.5C 235.294,306.197 222.961,365.863 210.5,425.5C 213.167,425.5 215.833,425.5 218.5,425.5C 244.33,426.663 270.33,426.83 296.5,426C 303.396,425.442 310.063,423.942 316.5,421.5C 314.571,423.148 312.571,424.815 310.5,426.5C 310.808,427.308 311.308,427.975 312,428.5C 314.974,426.793 318.141,425.46 321.5,424.5C 320.251,426.136 318.584,427.303 316.5,428C 311.072,430.365 305.405,431.699 299.5,432C 272.169,432.5 244.835,432.667 217.5,432.5C 217.5,433.833 217.5,435.167 217.5,436.5C 215.352,436.611 215.019,435.944 216.5,434.5C 205.413,434.579 201.247,429.246 204,418.5C 216.361,361.192 228.528,303.858 240.5,246.5C 244.622,230.364 248.289,214.03 251.5,197.5C 254.217,182.413 257.384,167.413 261,152.5C 262.873,150.291 265.04,148.458 267.5,147C 285.498,146.441 303.498,145.941 321.5,145.5C 335.886,145.47 350.219,146.304 364.5,148C 374.769,149.772 381.436,155.605 384.5,165.5 Z M 370.5,157.5 C 370.953,158.458 371.619,159.292 372.5,160C 370.527,160.495 368.527,160.662 366.5,160.5C 350.846,159.902 335.18,159.568 319.5,159.5C 305.434,159.359 291.434,159.859 277.5,161C 275.19,162.637 273.69,164.804 273,167.5C 271.099,176.836 269.266,186.169 267.5,195.5C 264.461,196.01 261.461,196.677 258.5,197.5C 261.395,184.192 264.228,170.859 267,157.5C 267.5,155.667 268.667,154.5 270.5,154C 295.167,153.333 319.833,153.333 344.5,154C 353.414,153.805 362.081,154.972 370.5,157.5 Z"/></g>
<g><path style="opacity:0.008" fill="#eceef3" d="M 370.5,157.5 C 372.71,157.894 374.043,159.227 374.5,161.5C 371.615,161.806 368.948,161.473 366.5,160.5C 368.527,160.662 370.527,160.495 372.5,160C 371.619,159.292 370.953,158.458 370.5,157.5 Z"/></g>
<g><path style="opacity:1" fill="#9e3fe0" d="M 366.5,160.5 C 368.948,161.473 371.615,161.806 374.5,161.5C 375.558,162.6 376.392,163.934 377,165.5C 377.554,172.572 377.054,179.572 375.5,186.5C 374.797,193.41 373.463,200.077 371.5,206.5C 370.343,209.273 369.676,212.273 369.5,215.5C 369.841,219.16 369.175,222.493 367.5,225.5C 366.215,228.589 365.549,231.922 365.5,235.5C 365.5,235.833 365.5,236.167 365.5,236.5C 364.087,239.219 363.42,242.219 363.5,245.5C 363.5,245.833 363.5,246.167 363.5,246.5C 361.96,248.838 361.294,251.505 361.5,254.5C 361.5,254.833 361.5,255.167 361.5,255.5C 360.087,258.219 359.42,261.219 359.5,264.5C 359.5,264.833 359.5,265.167 359.5,265.5C 357.96,267.838 357.294,270.505 357.5,273.5C 357.678,277.122 357.011,280.456 355.5,283.5C 354.087,286.219 353.42,289.219 353.5,292.5C 353.678,296.122 353.011,299.456 351.5,302.5C 350.087,305.219 349.42,308.219 349.5,311.5C 347.421,317.558 346.087,323.891 345.5,330.5C 345.309,334.262 344.642,337.929 343.5,341.5C 341.96,343.838 341.294,346.505 341.5,349.5C 341.784,351.415 341.451,353.081 340.5,354.5C 338.754,358.889 337.754,363.556 337.5,368.5C 336.689,375.062 335.356,381.395 333.5,387.5C 331.802,392.628 330.469,397.961 329.5,403.5C 328.179,410.141 324.846,415.475 319.5,419.5C 317.973,419.427 316.973,420.094 316.5,421.5C 310.063,423.942 303.396,425.442 296.5,426C 270.33,426.83 244.33,426.663 218.5,425.5C 231.04,365.468 243.706,305.468 256.5,245.5C 260.163,228.855 263.829,212.188 267.5,195.5C 269.266,186.169 271.099,176.836 273,167.5C 273.69,164.804 275.19,162.637 277.5,161C 291.434,159.859 305.434,159.359 319.5,159.5C 335.18,159.568 350.846,159.902 366.5,160.5 Z M 303.5,229.5 C 302.549,230.919 302.216,232.585 302.5,234.5C 299.293,245.196 296.959,256.196 295.5,267.5C 293.898,271.921 292.898,276.588 292.5,281.5C 291.087,284.219 290.42,287.219 290.5,290.5C 288.645,296.601 287.311,302.934 286.5,309.5C 282.582,323.188 279.582,337.188 277.5,351.5C 276.549,352.919 276.216,354.585 276.5,356.5C 275.028,359.269 273.861,362.269 273,365.5C 271.702,371.772 270.702,378.106 270,384.5C 269.059,386.061 267.892,387.395 266.5,388.5C 266.167,387.667 265.833,386.833 265.5,386C 268.289,375.976 270.289,365.809 271.5,355.5C 272.657,352.727 273.324,349.727 273.5,346.5C 274.301,344.958 274.634,343.292 274.5,341.5C 275.657,338.727 276.324,335.727 276.5,332.5C 277.461,330.735 277.795,328.735 277.5,326.5C 279.592,320.447 280.925,314.114 281.5,307.5C 282.913,304.781 283.58,301.781 283.5,298.5C 285.357,292.385 286.69,286.052 287.5,279.5C 288.768,277.095 289.435,274.428 289.5,271.5C 289.5,270.833 289.5,270.167 289.5,269.5C 291.118,266.829 291.785,263.829 291.5,260.5C 293.118,257.829 293.785,254.829 293.5,251.5C 295.463,245.761 296.796,239.761 297.5,233.5C 297.5,233.167 297.5,232.833 297.5,232.5C 299.04,230.162 299.706,227.495 299.5,224.5C 301.889,215.199 304.389,205.866 307,196.5C 307.923,198.034 308.423,199.701 308.5,201.5C 305.678,210.535 304.011,219.868 303.5,229.5 Z M 326.5,203.5 C 329.247,203.187 331.914,203.52 334.5,204.5C 320.577,268.448 306.91,332.448 293.5,396.5C 288.056,397.108 283.056,396.442 278.5,394.5C 278.5,394.167 278.5,393.833 278.5,393.5C 279.404,392.791 279.737,391.791 279.5,390.5C 281.833,390.5 284.167,390.5 286.5,390.5C 299.365,328.045 312.698,265.712 326.5,203.5 Z"/></g>
<g><path style="opacity:0.737" fill="#959bc6" d="M 384.5,165.5 C 385.167,165.5 385.5,165.833 385.5,166.5C 384.833,168.833 384.167,171.167 383.5,173.5C 383.194,170.615 383.527,167.948 384.5,165.5 Z"/></g>
<g><path style="opacity:0.999" fill="#a34ee1" d="M 385.5,166.5 C 388.324,168.8 390.157,171.8 391,175.5C 391.667,179.5 391.667,183.5 391,187.5C 375.666,260.836 360.333,334.169 345,407.5C 341.354,429.142 328.52,439.976 306.5,440C 277.5,440.667 248.5,440.667 219.5,440C 218.177,439.184 217.511,438.017 217.5,436.5C 217.5,435.167 217.5,433.833 217.5,432.5C 244.835,432.667 272.169,432.5 299.5,432C 305.405,431.699 311.072,430.365 316.5,428C 318.584,427.303 320.251,426.136 321.5,424.5C 323.027,424.573 324.027,423.906 324.5,422.5C 324.833,421.5 325.5,420.833 326.5,420.5C 328.262,419.738 329.262,418.404 329.5,416.5C 331.545,411.755 333.545,407.089 335.5,402.5C 337.963,396.866 339.296,390.866 339.5,384.5C 339.216,382.585 339.549,380.919 340.5,379.5C 342.04,377.162 342.706,374.495 342.5,371.5C 342.216,369.585 342.549,367.919 343.5,366.5C 345.375,361.794 346.375,356.794 346.5,351.5C 346.366,349.708 346.699,348.042 347.5,346.5C 349.04,344.162 349.706,341.495 349.5,338.5C 349.216,336.585 349.549,334.919 350.5,333.5C 352.375,328.794 353.375,323.794 353.5,318.5C 353.232,316.901 353.566,315.568 354.5,314.5C 356.594,308.44 357.928,302.107 358.5,295.5C 360.375,290.794 361.375,285.794 361.5,280.5C 364.041,273.14 365.707,265.473 366.5,257.5C 366.216,255.585 366.549,253.919 367.5,252.5C 369.708,246.127 371.041,239.46 371.5,232.5C 372.913,229.781 373.58,226.781 373.5,223.5C 374.913,220.781 375.58,217.781 375.5,214.5C 378.913,201.1 381.579,187.433 383.5,173.5C 384.167,171.167 384.833,168.833 385.5,166.5 Z"/></g>
<g><path style="opacity:0.814" fill="#87faa9" d="M 326.5,203.5 C 312.698,265.712 299.365,328.045 286.5,390.5C 284.167,390.5 281.833,390.5 279.5,390.5C 274.251,390.141 269.251,389.141 264.5,387.5C 266.086,376.562 268.419,365.896 271.5,355.5C 270.289,365.809 268.289,375.976 265.5,386C 265.833,386.833 266.167,387.667 266.5,388.5C 267.892,387.395 269.059,386.061 270,384.5C 270.702,378.106 271.702,371.772 273,365.5C 273.861,362.269 275.028,359.269 276.5,356.5C 275.157,365.556 273.491,374.556 271.5,383.5C 275.03,384.011 278.196,383.344 281,381.5C 294.105,319.805 307.272,258.138 320.5,196.5C 317.167,196.5 313.833,196.5 310.5,196.5C 309.241,207.85 306.908,218.85 303.5,229.5C 304.011,219.868 305.678,210.535 308.5,201.5C 308.423,199.701 307.923,198.034 307,196.5C 304.389,205.866 301.889,215.199 299.5,224.5C 301.342,213.12 303.508,201.786 306,190.5C 313.413,189.519 320.913,189.186 328.5,189.5C 327.883,193.917 326.883,198.25 325.5,202.5C 325.624,203.107 325.957,203.44 326.5,203.5 Z"/></g>
<g><path style="opacity:1" fill="#070908" d="M 267.5,195.5 C 263.829,212.188 260.163,228.855 256.5,245.5C 255.833,245.5 255.167,245.5 254.5,245.5C 251.918,245.975 249.918,245.308 248.5,243.5C 251.467,227.988 254.801,212.654 258.5,197.5C 261.461,196.677 264.461,196.01 267.5,195.5 Z"/></g>
<g><path style="opacity:1" fill="#9d41e0" d="M 276.5,356.5 C 276.216,354.585 276.549,352.919 277.5,351.5C 281.1,337.749 284.1,323.749 286.5,309.5C 288.785,303.491 290.118,297.157 290.5,290.5C 292.118,287.829 292.785,284.829 292.5,281.5C 294.419,277.143 295.419,272.477 295.5,267.5C 298.572,256.764 300.905,245.764 302.5,234.5C 302.216,232.585 302.549,230.919 303.5,229.5C 306.908,218.85 309.241,207.85 310.5,196.5C 313.833,196.5 317.167,196.5 320.5,196.5C 307.272,258.138 294.105,319.805 281,381.5C 278.196,383.344 275.03,384.011 271.5,383.5C 273.491,374.556 275.157,365.556 276.5,356.5 Z"/></g>
<g><path style="opacity:0.021" fill="#82e2aa" d="M 371.5,206.5 C 371.785,209.829 371.118,212.829 369.5,215.5C 369.676,212.273 370.343,209.273 371.5,206.5 Z"/></g>
<g><path style="opacity:0.588" fill="#89cbb2" d="M 375.5,214.5 C 375.58,217.781 374.913,220.781 373.5,223.5C 373.42,220.219 374.087,217.219 375.5,214.5 Z"/></g>
<g><path style="opacity:0.427" fill="#83ddac" d="M 373.5,223.5 C 373.58,226.781 372.913,229.781 371.5,232.5C 371.42,229.219 372.087,226.219 373.5,223.5 Z"/></g>
<g><path style="opacity:0.026" fill="#85dbac" d="M 367.5,225.5 C 367.678,229.122 367.011,232.456 365.5,235.5C 365.549,231.922 366.215,228.589 367.5,225.5 Z"/></g>
<g><path style="opacity:0.022" fill="#82e5a9" d="M 299.5,224.5 C 299.706,227.495 299.04,230.162 297.5,232.5C 297.294,229.505 297.96,226.838 299.5,224.5 Z"/></g>
<g><path style="opacity:0.016" fill="#84deac" d="M 371.5,232.5 C 371.041,239.46 369.708,246.127 367.5,252.5C 368.215,245.589 369.549,238.923 371.5,232.5 Z"/></g>
<g><path style="opacity:0.017" fill="#7feba7" d="M 365.5,236.5 C 365.58,239.781 364.913,242.781 363.5,245.5C 363.42,242.219 364.087,239.219 365.5,236.5 Z"/></g>
<g><path style="opacity:0.024" fill="#7feba7" d="M 297.5,233.5 C 296.796,239.761 295.463,245.761 293.5,251.5C 293.989,245.196 295.322,239.196 297.5,233.5 Z"/></g>
<g><path style="opacity:0.086" fill="#bdc4be" d="M 248.5,243.5 C 249.918,245.308 251.918,245.975 254.5,245.5C 252.393,246.468 250.059,246.802 247.5,246.5C 247.263,245.209 247.596,244.209 248.5,243.5 Z"/></g>
<g><path style="opacity:0.014" fill="#83e3aa" d="M 363.5,246.5 C 363.435,249.428 362.768,252.095 361.5,254.5C 361.294,251.505 361.96,248.838 363.5,246.5 Z"/></g>
<g><path style="opacity:0.016" fill="#84dfab" d="M 293.5,251.5 C 293.785,254.829 293.118,257.829 291.5,260.5C 291.42,257.219 292.087,254.219 293.5,251.5 Z"/></g>
<g><path style="opacity:0.017" fill="#80e8a8" d="M 361.5,255.5 C 361.58,258.781 360.913,261.781 359.5,264.5C 359.42,261.219 360.087,258.219 361.5,255.5 Z"/></g>
<g><path style="opacity:0.016" fill="#80eaa7" d="M 302.5,234.5 C 300.905,245.764 298.572,256.764 295.5,267.5C 296.959,256.196 299.293,245.196 302.5,234.5 Z"/></g>
<g><path style="opacity:0.02" fill="#83dfab" d="M 291.5,260.5 C 291.785,263.829 291.118,266.829 289.5,269.5C 289.676,266.273 290.343,263.273 291.5,260.5 Z"/></g>
<g><path style="opacity:0.013" fill="#85dbac" d="M 366.5,257.5 C 365.707,265.473 364.041,273.14 361.5,280.5C 362.548,272.584 364.215,264.917 366.5,257.5 Z"/></g>
<g><path style="opacity:0.018" fill="#83e3aa" d="M 359.5,265.5 C 359.706,268.495 359.04,271.162 357.5,273.5C 357.294,270.505 357.96,267.838 359.5,265.5 Z"/></g>
<g><path style="opacity:0.016" fill="#81e6a9" d="M 289.5,271.5 C 289.435,274.428 288.768,277.095 287.5,279.5C 287.294,276.505 287.96,273.838 289.5,271.5 Z"/></g>
<g><path style="opacity:0.494" fill="#84dbac" d="M 295.5,267.5 C 295.419,272.477 294.419,277.143 292.5,281.5C 292.898,276.588 293.898,271.921 295.5,267.5 Z"/></g>
<g><path style="opacity:0.022" fill="#81eaa7" d="M 292.5,281.5 C 292.785,284.829 292.118,287.829 290.5,290.5C 290.42,287.219 291.087,284.219 292.5,281.5 Z"/></g>
<g><path style="opacity:0.016" fill="#84deac" d="M 361.5,280.5 C 361.375,285.794 360.375,290.794 358.5,295.5C 358.882,290.256 359.882,285.256 361.5,280.5 Z"/></g>
<g><path style="opacity:0.022" fill="#84deac" d="M 355.5,283.5 C 355.58,286.781 354.913,289.781 353.5,292.5C 353.42,289.219 354.087,286.219 355.5,283.5 Z"/></g>
<g><path style="opacity:0.022" fill="#82e5a9" d="M 290.5,290.5 C 290.118,297.157 288.785,303.491 286.5,309.5C 287.311,302.934 288.645,296.601 290.5,290.5 Z"/></g>
<g><path style="opacity:0.018" fill="#84dfab" d="M 283.5,298.5 C 283.58,301.781 282.913,304.781 281.5,307.5C 281.42,304.219 282.087,301.219 283.5,298.5 Z"/></g>
<g><path style="opacity:0.58" fill="#89cdb2" d="M 358.5,295.5 C 357.928,302.107 356.594,308.44 354.5,314.5C 355.087,307.891 356.421,301.558 358.5,295.5 Z"/></g>
<g><path style="opacity:0.017" fill="#84e1ab" d="M 351.5,302.5 C 351.785,305.829 351.118,308.829 349.5,311.5C 349.42,308.219 350.087,305.219 351.5,302.5 Z"/></g>
<g><path style="opacity:0.016" fill="#86d9ad" d="M 349.5,311.5 C 348.928,318.107 347.594,324.44 345.5,330.5C 346.087,323.891 347.421,317.558 349.5,311.5 Z"/></g>
<g><path style="opacity:0.013" fill="#84deac" d="M 353.5,318.5 C 353.375,323.794 352.375,328.794 350.5,333.5C 350.882,328.256 351.882,323.256 353.5,318.5 Z"/></g>
<g><path style="opacity:0.031" fill="#83e1aa" d="M 281.5,307.5 C 280.925,314.114 279.592,320.447 277.5,326.5C 278.087,319.891 279.421,313.558 281.5,307.5 Z"/></g>
<g><path style="opacity:0.025" fill="#7feea6" d="M 276.5,332.5 C 276.324,335.727 275.657,338.727 274.5,341.5C 274.215,338.171 274.882,335.171 276.5,332.5 Z"/></g>
<g><path style="opacity:0.021" fill="#7ef0a5" d="M 286.5,309.5 C 284.1,323.749 281.1,337.749 277.5,351.5C 279.582,337.188 282.582,323.188 286.5,309.5 Z"/></g>
<g><path style="opacity:0.024" fill="#82e4a9" d="M 343.5,341.5 C 343.435,344.428 342.768,347.095 341.5,349.5C 341.294,346.505 341.96,343.838 343.5,341.5 Z"/></g>
<g><path style="opacity:0.584" fill="#88d0b0" d="M 349.5,338.5 C 349.706,341.495 349.04,344.162 347.5,346.5C 347.565,343.572 348.232,340.905 349.5,338.5 Z"/></g>
<g><path style="opacity:0.021" fill="#82e6a9" d="M 273.5,346.5 C 273.324,349.727 272.657,352.727 271.5,355.5C 271.215,352.171 271.882,349.171 273.5,346.5 Z"/></g>
<g><path style="opacity:0.013" fill="#83dfab" d="M 346.5,351.5 C 346.375,356.794 345.375,361.794 343.5,366.5C 343.882,361.256 344.882,356.256 346.5,351.5 Z"/></g>
<g><path style="opacity:0.021" fill="#83e2aa" d="M 340.5,354.5 C 340.246,359.444 339.246,364.111 337.5,368.5C 337.754,363.556 338.754,358.889 340.5,354.5 Z"/></g>
<g><path style="opacity:0.62" fill="#88d0b0" d="M 342.5,371.5 C 342.706,374.495 342.04,377.162 340.5,379.5C 340.565,376.572 341.232,373.905 342.5,371.5 Z"/></g>
<g><path style="opacity:0.72" fill="#95a2c6" d="M 264.5,387.5 C 269.251,389.141 274.251,390.141 279.5,390.5C 279.737,391.791 279.404,392.791 278.5,393.5C 278.5,392.5 278.5,391.5 278.5,390.5C 273.5,390.5 268.5,390.5 263.5,390.5C 263.263,389.209 263.596,388.209 264.5,387.5 Z"/></g>
<g><path style="opacity:0.018" fill="#83e1aa" d="M 333.5,387.5 C 333.292,393.237 331.958,398.57 329.5,403.5C 330.469,397.961 331.802,392.628 333.5,387.5 Z"/></g>
<g><path style="opacity:0.555" fill="#cc9aef" d="M 278.5,394.5 C 283.056,396.442 288.056,397.108 293.5,396.5C 288.36,397.488 283.026,397.821 277.5,397.5C 277.263,396.209 277.596,395.209 278.5,394.5 Z"/></g>
<g><path style="opacity:0.015" fill="#7feea6" d="M 339.5,384.5 C 339.296,390.866 337.963,396.866 335.5,402.5C 336.231,396.252 337.565,390.252 339.5,384.5 Z"/></g>
<g><path style="opacity:0.816" fill="#93acbe" d="M 329.5,416.5 C 329.262,418.404 328.262,419.738 326.5,420.5C 326.738,418.596 327.738,417.262 329.5,416.5 Z"/></g>
<g><path style="opacity:0.008" fill="#7cf2a4" d="M 319.5,419.5 C 319.027,420.906 318.027,421.573 316.5,421.5C 316.973,420.094 317.973,419.427 319.5,419.5 Z"/></g>
<g><path style="opacity:0.49" fill="#89c3b4" d="M 324.5,422.5 C 324.027,423.906 323.027,424.573 321.5,424.5C 321.973,423.094 322.973,422.427 324.5,422.5 Z"/></g>
</svg>
