<?xml version="1.0" encoding="UTF-8"?>
<!DOCTYPE svg PUBLIC "-//W3C//DTD SVG 1.1//EN" "http://www.w3.org/Graphics/SVG/1.1/DTD/svg11.dtd">
<svg xmlns="http://www.w3.org/2000/svg" version="1.1" width="500px" height="500px" style="shape-rendering:geometricPrecision; text-rendering:geometricPrecision; image-rendering:optimizeQuality; fill-rule:evenodd; clip-rule:evenodd" xmlns:xlink="http://www.w3.org/1999/xlink">
<g><path style="opacity:0.999" fill="#fafafa" d="M 251.5,197.5 C 248.074,213.488 244.74,229.488 241.5,245.5C 237.833,245.5 234.167,245.5 230.5,245.5C 180.84,238.996 147.34,212.329 130,165.5C 118.853,109.296 138.02,66.7959 187.5,38C 223.687,21.0428 260.354,20.0428 297.5,35C 303.143,37.1546 308.143,40.3213 312.5,44.5C 305.755,58.323 298.755,71.9897 291.5,85.5C 266.748,71.6463 241.081,69.813 214.5,80C 189.861,93.4349 178.361,114.268 180,142.5C 188.488,180.462 212.322,198.795 251.5,197.5 Z"/></g>
<g><path style="opacity:0.689" fill="#458b59" d="M 360.5,147.5 C 329.5,147.5 298.5,147.5 267.5,147.5C 272.255,146.058 277.255,145.392 282.5,145.5C 308.663,146.08 334.663,146.747 360.5,147.5 Z"/></g>
<g><path style="opacity:0.992" fill="#75f099" d="M 267.5,147.5 C 298.5,147.5 329.5,147.5 360.5,147.5C 368.874,147.771 375.708,151.104 381,157.5C 382.707,159.909 383.54,162.575 383.5,165.5C 383.5,168.167 383.5,170.833 383.5,173.5C 369.312,245.956 354.479,318.29 339,390.5C 337.393,399.654 334.393,408.32 330,416.5C 324.601,424.458 317.101,429.291 307.5,431C 277.529,432.435 247.529,432.935 217.5,432.5C 214.833,432.5 212.167,432.5 209.5,432.5C 206.585,432.087 204.752,430.421 204,427.5C 203.333,424.833 203.333,422.167 204,419.5C 216.028,363.193 227.861,306.859 239.5,250.5C 240.931,249.22 241.598,247.553 241.5,245.5C 244.74,229.488 248.074,213.488 251.5,197.5C 254.048,181.923 257.548,166.59 262,151.5C 263.451,149.536 265.284,148.203 267.5,147.5 Z M 270.5,153.5 C 295.179,153.736 319.512,153.736 343.5,153.5C 352.825,153.288 361.825,154.622 370.5,157.5C 370.953,158.458 371.619,159.292 372.5,160C 370.527,160.495 368.527,160.662 366.5,160.5C 350.846,159.902 335.18,159.568 319.5,159.5C 305.434,159.359 291.434,159.859 277.5,161C 275.383,162.731 273.883,164.898 273,167.5C 271.099,176.836 269.266,186.169 267.5,195.5C 266.167,195.833 264.833,196.167 263.5,196.5C 262.167,196.5 260.833,196.5 259.5,196.5C 259.5,194.833 259.5,193.167 259.5,191.5C 262.316,180.284 264.816,168.95 267,157.5C 267.69,155.65 268.856,154.316 270.5,153.5 Z M 294.5,393.5 C 293.596,394.209 293.263,395.209 293.5,396.5C 288.056,397.108 283.056,396.442 278.5,394.5C 279.434,393.432 279.768,392.099 279.5,390.5C 281.833,390.5 284.167,390.5 286.5,390.5C 288.089,380.423 290.423,370.257 293.5,360C 293.167,359.667 292.833,359.333 292.5,359C 294.736,354.168 295.736,349.335 295.5,344.5C 297.163,342.562 297.829,340.228 297.5,337.5C 304.983,300.885 312.983,264.719 321.5,229C 321.216,227.044 321.216,224.877 321.5,222.5C 323.163,220.562 323.829,218.228 323.5,215.5C 324.583,211.915 325.249,208.249 325.5,204.5C 328.391,203.597 331.391,203.264 334.5,203.5C 320.782,266.755 307.449,330.089 294.5,393.5 Z M 256.5,245.5 C 243.878,305.948 230.878,366.281 217.5,426.5C 214.396,427.029 212.063,426.029 210.5,423.5C 222.993,364.529 235.326,305.529 247.5,246.5C 250.545,246.492 253.545,246.159 256.5,245.5 Z"/></g>
<g><path style="opacity:0.334" fill="#31623f" d="M 270.5,153.5 C 294.833,152.167 319.167,152.167 343.5,153.5C 319.512,153.736 295.179,153.736 270.5,153.5 Z"/></g>
<g><path style="opacity:0.075" fill="#1e1f24" d="M 370.5,157.5 C 372.71,157.894 374.043,159.227 374.5,161.5C 371.615,161.806 368.948,161.473 366.5,160.5C 368.527,160.662 370.527,160.495 372.5,160C 371.619,159.292 370.953,158.458 370.5,157.5 Z"/></g>
<g><path style="opacity:0.998" fill="#9b3bde" d="M 366.5,160.5 C 368.948,161.473 371.615,161.806 374.5,161.5C 376.895,164.12 377.895,167.287 377.5,171C 363.042,245.329 347.875,319.496 332,393.5C 330.457,400.13 328.123,406.463 325,412.5C 320.184,419.831 313.351,423.998 304.5,425C 275.53,426.432 246.53,426.932 217.5,426.5C 230.878,366.281 243.878,305.948 256.5,245.5C 260.592,228.954 264.259,212.288 267.5,195.5C 269.266,186.169 271.099,176.836 273,167.5C 273.883,164.898 275.383,162.731 277.5,161C 291.434,159.859 305.434,159.359 319.5,159.5C 335.18,159.568 350.846,159.902 366.5,160.5 Z M 294.5,393.5 C 293.596,394.209 293.263,395.209 293.5,396.5C 288.056,397.108 283.056,396.442 278.5,394.5C 279.434,393.432 279.768,392.099 279.5,390.5C 281.833,390.5 284.167,390.5 286.5,390.5C 288.089,380.423 290.423,370.257 293.5,360C 293.167,359.667 292.833,359.333 292.5,359C 294.736,354.168 295.736,349.335 295.5,344.5C 297.163,342.562 297.829,340.228 297.5,337.5C 304.983,300.885 312.983,264.719 321.5,229C 321.216,227.044 321.216,224.877 321.5,222.5C 323.163,220.562 323.829,218.228 323.5,215.5C 324.583,211.915 325.249,208.249 325.5,204.5C 328.391,203.597 331.391,203.264 334.5,203.5C 320.782,266.755 307.449,330.089 294.5,393.5 Z"/></g>
<g><path style="opacity:0.776" fill="#848ab5" d="M 383.5,165.5 C 384.492,165.328 385.158,165.662 385.5,166.5C 384.833,168.833 384.167,171.167 383.5,173.5C 383.5,170.833 383.5,168.167 383.5,165.5 Z"/></g>
<g><path style="opacity:0.98" fill="#963cd6" d="M 385.5,166.5 C 390.741,172.119 392.574,178.786 391,186.5C 375.667,259.833 360.333,333.167 345,406.5C 340.599,429.889 326.432,441.056 302.5,440C 275.167,440.667 247.833,440.667 220.5,440C 218.137,439.411 217.137,437.911 217.5,435.5C 217.5,434.5 217.5,433.5 217.5,432.5C 247.529,432.935 277.529,432.435 307.5,431C 317.101,429.291 324.601,424.458 330,416.5C 334.393,408.32 337.393,399.654 339,390.5C 354.479,318.29 369.312,245.956 383.5,173.5C 384.167,171.167 384.833,168.833 385.5,166.5 Z"/></g>
<g><path style="opacity:0.997" fill="#75ec9a" d="M 325.5,204.5 C 325.249,208.249 324.583,211.915 323.5,215.5C 322.388,217.599 321.721,219.933 321.5,222.5C 321.216,224.877 321.216,227.044 321.5,229C 312.983,264.719 304.983,300.885 297.5,337.5C 296.388,339.599 295.721,341.933 295.5,344.5C 295.736,349.335 294.736,354.168 292.5,359C 292.833,359.333 293.167,359.667 293.5,360C 290.423,370.257 288.089,380.423 286.5,390.5C 284.167,390.5 281.833,390.5 279.5,390.5C 274.251,390.141 269.251,389.141 264.5,387.5C 277.904,321.744 291.737,256.078 306,190.5C 313.413,189.519 320.913,189.186 328.5,189.5C 327.628,194.527 326.628,199.527 325.5,204.5 Z"/></g>
<g><path style="opacity:0.014" fill="#28332a" d="M 259.5,191.5 C 259.5,193.167 259.5,194.833 259.5,196.5C 260.833,196.5 262.167,196.5 263.5,196.5C 262.081,197.451 260.415,197.784 258.5,197.5C 258.205,195.265 258.539,193.265 259.5,191.5 Z"/></g>
<g><path style="opacity:0.998" fill="#f8f9f9" d="M 267.5,195.5 C 264.259,212.288 260.592,228.954 256.5,245.5C 253.545,246.159 250.545,246.492 247.5,246.5C 250.968,230.102 254.635,213.768 258.5,197.5C 260.415,197.784 262.081,197.451 263.5,196.5C 264.833,196.167 266.167,195.833 267.5,195.5 Z"/></g>
<g><path style="opacity:1" fill="#9b3fde" d="M 310.5,196.5 C 313.833,196.5 317.167,196.5 320.5,196.5C 307.272,258.138 294.105,319.805 281,381.5C 279.647,382.704 277.981,383.371 276,383.5C 274.5,383.167 273,382.833 271.5,382.5C 284.921,320.575 297.921,258.575 310.5,196.5 Z"/></g>
<g><path style="opacity:0.006" fill="#1d3523" d="M 323.5,215.5 C 323.829,218.228 323.163,220.562 321.5,222.5C 321.721,219.933 322.388,217.599 323.5,215.5 Z"/></g>
<g><path style="opacity:0.318" fill="#666f68" d="M 230.5,245.5 C 234.167,245.5 237.833,245.5 241.5,245.5C 241.598,247.553 240.931,249.22 239.5,250.5C 239.5,249.167 239.5,247.833 239.5,246.5C 236.287,246.81 233.287,246.477 230.5,245.5 Z"/></g>
<g><path style="opacity:0.006" fill="#1d3523" d="M 297.5,337.5 C 297.829,340.228 297.163,342.562 295.5,344.5C 295.721,341.933 296.388,339.599 297.5,337.5 Z"/></g>
<g><path style="opacity:0.958" fill="#7885a5" d="M 264.5,387.5 C 269.251,389.141 274.251,390.141 279.5,390.5C 279.768,392.099 279.434,393.432 278.5,394.5C 278.5,393.167 278.5,391.833 278.5,390.5C 273.5,390.5 268.5,390.5 263.5,390.5C 263.263,389.209 263.596,388.209 264.5,387.5 Z"/></g>
<g><path style="opacity:0.348" fill="#521f76" d="M 294.5,393.5 C 294.5,394.833 294.5,396.167 294.5,397.5C 288.833,397.5 283.167,397.5 277.5,397.5C 277.263,396.209 277.596,395.209 278.5,394.5C 283.056,396.442 288.056,397.108 293.5,396.5C 293.263,395.209 293.596,394.209 294.5,393.5 Z"/></g>
<g><path style="opacity:0.058" fill="#25372f" d="M 209.5,432.5 C 212.167,432.5 214.833,432.5 217.5,432.5C 217.5,433.5 217.5,434.5 217.5,435.5C 214.972,434.065 212.305,433.065 209.5,432.5 Z"/></g>
</svg>
